<mxfile host="app.diagrams.net" modified="2024-04-28T12:38:25.749Z" agent="Mozilla/5.0 (Windows NT 10.0; Win64; x64) AppleWebKit/537.36 (KHTML, like Gecko) Chrome/124.0.0.0 Safari/537.36" etag="A71OkP0dW6vCVnDAnDJY" version="24.3.1" type="google">
  <diagram name="Page-1" id="2YBvvXClWsGukQMizWep">
    <mxGraphModel grid="1" page="1" gridSize="10" guides="1" tooltips="1" connect="1" arrows="1" fold="1" pageScale="1" pageWidth="850" pageHeight="1100" math="0" shadow="0">
      <root>
        <mxCell id="0" />
        <mxCell id="1" parent="0" />
        <mxCell id="aM9ryv3xv72pqoxQDRHE-1" value=":main_order_screen" style="shape=umlLifeline;perimeter=lifelinePerimeter;whiteSpace=wrap;html=1;container=0;dropTarget=0;collapsible=0;recursiveResize=0;outlineConnect=0;portConstraint=eastwest;newEdgeStyle={&quot;edgeStyle&quot;:&quot;elbowEdgeStyle&quot;,&quot;elbow&quot;:&quot;vertical&quot;,&quot;curved&quot;:0,&quot;rounded&quot;:0};" vertex="1" parent="1">
          <mxGeometry x="40" y="40" width="100" height="880" as="geometry" />
        </mxCell>
        <mxCell id="aM9ryv3xv72pqoxQDRHE-2" value="" style="html=1;points=[];perimeter=orthogonalPerimeter;outlineConnect=0;targetShapes=umlLifeline;portConstraint=eastwest;newEdgeStyle={&quot;edgeStyle&quot;:&quot;elbowEdgeStyle&quot;,&quot;elbow&quot;:&quot;vertical&quot;,&quot;curved&quot;:0,&quot;rounded&quot;:0};" vertex="1" parent="aM9ryv3xv72pqoxQDRHE-1">
          <mxGeometry x="45" y="70" width="10" height="220" as="geometry" />
        </mxCell>
        <mxCell id="aM9ryv3xv72pqoxQDRHE-5" value=":products" style="shape=umlLifeline;perimeter=lifelinePerimeter;whiteSpace=wrap;html=1;container=0;dropTarget=0;collapsible=0;recursiveResize=0;outlineConnect=0;portConstraint=eastwest;newEdgeStyle={&quot;edgeStyle&quot;:&quot;elbowEdgeStyle&quot;,&quot;elbow&quot;:&quot;vertical&quot;,&quot;curved&quot;:0,&quot;rounded&quot;:0};" vertex="1" parent="1">
          <mxGeometry x="210" y="40" width="100" height="1400" as="geometry" />
        </mxCell>
        <mxCell id="aM9ryv3xv72pqoxQDRHE-6" value="" style="html=1;points=[];perimeter=orthogonalPerimeter;outlineConnect=0;targetShapes=umlLifeline;portConstraint=eastwest;newEdgeStyle={&quot;edgeStyle&quot;:&quot;elbowEdgeStyle&quot;,&quot;elbow&quot;:&quot;vertical&quot;,&quot;curved&quot;:0,&quot;rounded&quot;:0};" vertex="1" parent="aM9ryv3xv72pqoxQDRHE-5">
          <mxGeometry x="45" y="150" width="10" height="1100" as="geometry" />
        </mxCell>
        <mxCell id="kj--_n-7NAqOi2iFSIvL-1" value=":finished_order_&lt;div&gt;screen&lt;/div&gt;" style="shape=umlLifeline;perimeter=lifelinePerimeter;whiteSpace=wrap;html=1;container=0;dropTarget=0;collapsible=0;recursiveResize=0;outlineConnect=0;portConstraint=eastwest;newEdgeStyle={&quot;edgeStyle&quot;:&quot;elbowEdgeStyle&quot;,&quot;elbow&quot;:&quot;vertical&quot;,&quot;curved&quot;:0,&quot;rounded&quot;:0};" vertex="1" parent="1">
          <mxGeometry x="400" y="40" width="100" height="1400" as="geometry" />
        </mxCell>
        <mxCell id="kj--_n-7NAqOi2iFSIvL-2" value="" style="html=1;points=[];perimeter=orthogonalPerimeter;outlineConnect=0;targetShapes=umlLifeline;portConstraint=eastwest;newEdgeStyle={&quot;edgeStyle&quot;:&quot;elbowEdgeStyle&quot;,&quot;elbow&quot;:&quot;vertical&quot;,&quot;curved&quot;:0,&quot;rounded&quot;:0};" vertex="1" parent="kj--_n-7NAqOi2iFSIvL-1">
          <mxGeometry x="45" y="170" width="10" height="50" as="geometry" />
        </mxCell>
        <mxCell id="kj--_n-7NAqOi2iFSIvL-4" value=":pending_order_&lt;div&gt;screen&lt;/div&gt;" style="shape=umlLifeline;perimeter=lifelinePerimeter;whiteSpace=wrap;html=1;container=0;dropTarget=0;collapsible=0;recursiveResize=0;outlineConnect=0;portConstraint=eastwest;newEdgeStyle={&quot;edgeStyle&quot;:&quot;elbowEdgeStyle&quot;,&quot;elbow&quot;:&quot;vertical&quot;,&quot;curved&quot;:0,&quot;rounded&quot;:0};" vertex="1" parent="1">
          <mxGeometry x="580" y="40" width="100" height="1400" as="geometry" />
        </mxCell>
        <mxCell id="kj--_n-7NAqOi2iFSIvL-5" value="" style="html=1;points=[];perimeter=orthogonalPerimeter;outlineConnect=0;targetShapes=umlLifeline;portConstraint=eastwest;newEdgeStyle={&quot;edgeStyle&quot;:&quot;elbowEdgeStyle&quot;,&quot;elbow&quot;:&quot;vertical&quot;,&quot;curved&quot;:0,&quot;rounded&quot;:0};" vertex="1" parent="kj--_n-7NAqOi2iFSIvL-4">
          <mxGeometry x="45" y="355" width="10" height="105" as="geometry" />
        </mxCell>
        <mxCell id="kj--_n-7NAqOi2iFSIvL-7" value=":inventory" style="shape=umlLifeline;perimeter=lifelinePerimeter;whiteSpace=wrap;html=1;container=0;dropTarget=0;collapsible=0;recursiveResize=0;outlineConnect=0;portConstraint=eastwest;newEdgeStyle={&quot;edgeStyle&quot;:&quot;elbowEdgeStyle&quot;,&quot;elbow&quot;:&quot;vertical&quot;,&quot;curved&quot;:0,&quot;rounded&quot;:0};" vertex="1" parent="1">
          <mxGeometry x="760" y="40" width="100" height="1400" as="geometry" />
        </mxCell>
        <mxCell id="kj--_n-7NAqOi2iFSIvL-8" value="" style="html=1;points=[];perimeter=orthogonalPerimeter;outlineConnect=0;targetShapes=umlLifeline;portConstraint=eastwest;newEdgeStyle={&quot;edgeStyle&quot;:&quot;elbowEdgeStyle&quot;,&quot;elbow&quot;:&quot;vertical&quot;,&quot;curved&quot;:0,&quot;rounded&quot;:0};" vertex="1" parent="kj--_n-7NAqOi2iFSIvL-7">
          <mxGeometry x="45" y="520" width="10" height="250" as="geometry" />
        </mxCell>
        <mxCell id="kj--_n-7NAqOi2iFSIvL-10" value=":accept_order_&lt;div&gt;screen&lt;/div&gt;" style="shape=umlLifeline;perimeter=lifelinePerimeter;whiteSpace=wrap;html=1;container=0;dropTarget=0;collapsible=0;recursiveResize=0;outlineConnect=0;portConstraint=eastwest;newEdgeStyle={&quot;edgeStyle&quot;:&quot;elbowEdgeStyle&quot;,&quot;elbow&quot;:&quot;vertical&quot;,&quot;curved&quot;:0,&quot;rounded&quot;:0};" vertex="1" parent="1">
          <mxGeometry x="960" y="40" width="100" height="1400" as="geometry" />
        </mxCell>
        <mxCell id="kj--_n-7NAqOi2iFSIvL-11" value="" style="html=1;points=[];perimeter=orthogonalPerimeter;outlineConnect=0;targetShapes=umlLifeline;portConstraint=eastwest;newEdgeStyle={&quot;edgeStyle&quot;:&quot;elbowEdgeStyle&quot;,&quot;elbow&quot;:&quot;vertical&quot;,&quot;curved&quot;:0,&quot;rounded&quot;:0};" vertex="1" parent="kj--_n-7NAqOi2iFSIvL-10">
          <mxGeometry x="45" y="780" width="10" height="220" as="geometry" />
        </mxCell>
        <mxCell id="kj--_n-7NAqOi2iFSIvL-13" value="ΒΙβλιοπώλης" style="shape=umlActor;verticalLabelPosition=bottom;verticalAlign=top;html=1;outlineConnect=0;" vertex="1" parent="1">
          <mxGeometry x="-160" y="30" width="30" height="60" as="geometry" />
        </mxCell>
        <mxCell id="kj--_n-7NAqOi2iFSIvL-15" value="" style="endArrow=none;dashed=1;html=1;rounded=0;" edge="1" parent="1" target="kj--_n-7NAqOi2iFSIvL-13">
          <mxGeometry width="50" height="50" relative="1" as="geometry">
            <mxPoint x="-140" y="920" as="sourcePoint" />
            <mxPoint x="-70" y="200" as="targetPoint" />
          </mxGeometry>
        </mxCell>
        <mxCell id="kj--_n-7NAqOi2iFSIvL-16" value="" style="edgeStyle=none;orthogonalLoop=1;jettySize=auto;html=1;rounded=0;" edge="1" parent="1" target="aM9ryv3xv72pqoxQDRHE-2">
          <mxGeometry width="100" relative="1" as="geometry">
            <mxPoint x="-150" y="120" as="sourcePoint" />
            <mxPoint x="20" y="120" as="targetPoint" />
            <Array as="points" />
          </mxGeometry>
        </mxCell>
        <mxCell id="kj--_n-7NAqOi2iFSIvL-17" value="select_option_orders()" style="text;html=1;align=center;verticalAlign=middle;resizable=0;points=[];autosize=1;strokeColor=none;fillColor=none;" vertex="1" parent="1">
          <mxGeometry x="-80" y="88" width="140" height="30" as="geometry" />
        </mxCell>
        <mxCell id="kj--_n-7NAqOi2iFSIvL-19" value="" style="edgeStyle=none;orthogonalLoop=1;jettySize=auto;html=1;rounded=0;" edge="1" parent="1">
          <mxGeometry width="100" relative="1" as="geometry">
            <mxPoint x="95.5" y="200" as="sourcePoint" />
            <mxPoint x="260" y="200" as="targetPoint" />
            <Array as="points" />
          </mxGeometry>
        </mxCell>
        <mxCell id="kj--_n-7NAqOi2iFSIvL-20" value="select_finished_orders()" style="text;html=1;align=center;verticalAlign=middle;resizable=0;points=[];autosize=1;strokeColor=none;fillColor=none;" vertex="1" parent="1">
          <mxGeometry x="110" y="170" width="150" height="30" as="geometry" />
        </mxCell>
        <mxCell id="kj--_n-7NAqOi2iFSIvL-21" value="" style="edgeStyle=none;orthogonalLoop=1;jettySize=auto;html=1;rounded=0;" edge="1" parent="1">
          <mxGeometry width="100" relative="1" as="geometry">
            <mxPoint x="100" y="330" as="sourcePoint" />
            <mxPoint x="260" y="330" as="targetPoint" />
            <Array as="points" />
          </mxGeometry>
        </mxCell>
        <mxCell id="kj--_n-7NAqOi2iFSIvL-22" value="search_pending_orders()" style="text;html=1;align=center;verticalAlign=middle;resizable=0;points=[];autosize=1;strokeColor=none;fillColor=none;" vertex="1" parent="1">
          <mxGeometry x="90" y="300" width="160" height="30" as="geometry" />
        </mxCell>
        <mxCell id="kj--_n-7NAqOi2iFSIvL-23" value="" style="edgeStyle=none;orthogonalLoop=1;jettySize=auto;html=1;rounded=0;" edge="1" parent="1" target="kj--_n-7NAqOi2iFSIvL-1">
          <mxGeometry width="100" relative="1" as="geometry">
            <mxPoint x="260" y="230" as="sourcePoint" />
            <mxPoint x="360" y="230" as="targetPoint" />
            <Array as="points" />
          </mxGeometry>
        </mxCell>
        <mxCell id="kj--_n-7NAqOi2iFSIvL-24" value="display_finished_orders()" style="text;html=1;align=center;verticalAlign=middle;resizable=0;points=[];autosize=1;strokeColor=none;fillColor=none;" vertex="1" parent="1">
          <mxGeometry x="270" y="198" width="160" height="30" as="geometry" />
        </mxCell>
        <mxCell id="kj--_n-7NAqOi2iFSIvL-25" value="" style="rounded=0;whiteSpace=wrap;html=1;fillColor=none;strokeColor=#B85450;" vertex="1" parent="1">
          <mxGeometry x="-110" y="150" width="630" height="140" as="geometry" />
        </mxCell>
        <mxCell id="kj--_n-7NAqOi2iFSIvL-26" value="alternatives" style="shape=document;whiteSpace=wrap;html=1;boundedLbl=1;fillColor=#f8cecc;strokeColor=#b85450;" vertex="1" parent="1">
          <mxGeometry x="-110" y="150" width="90" height="40" as="geometry" />
        </mxCell>
        <mxCell id="kj--_n-7NAqOi2iFSIvL-27" value="finished orders" style="text;html=1;align=center;verticalAlign=middle;resizable=0;points=[];autosize=1;strokeColor=none;fillColor=none;" vertex="1" parent="1">
          <mxGeometry x="-110" y="190" width="100" height="30" as="geometry" />
        </mxCell>
        <mxCell id="kj--_n-7NAqOi2iFSIvL-28" value="" style="edgeStyle=none;orthogonalLoop=1;jettySize=auto;html=1;rounded=0;" edge="1" parent="1">
          <mxGeometry width="100" relative="1" as="geometry">
            <mxPoint x="270" y="400" as="sourcePoint" />
            <mxPoint x="630" y="400" as="targetPoint" />
            <Array as="points" />
          </mxGeometry>
        </mxCell>
        <mxCell id="kj--_n-7NAqOi2iFSIvL-29" value="display_pending_orders()" style="text;html=1;align=center;verticalAlign=middle;resizable=0;points=[];autosize=1;strokeColor=none;fillColor=none;" vertex="1" parent="1">
          <mxGeometry x="340" y="368" width="160" height="30" as="geometry" />
        </mxCell>
        <mxCell id="kj--_n-7NAqOi2iFSIvL-30" value="" style="edgeStyle=none;orthogonalLoop=1;jettySize=auto;html=1;rounded=0;" edge="1" parent="1" target="kj--_n-7NAqOi2iFSIvL-4">
          <mxGeometry width="100" relative="1" as="geometry">
            <mxPoint x="-140" y="440" as="sourcePoint" />
            <mxPoint x="420" y="440" as="targetPoint" />
            <Array as="points" />
          </mxGeometry>
        </mxCell>
        <mxCell id="kj--_n-7NAqOi2iFSIvL-31" value="select_order()" style="text;html=1;align=center;verticalAlign=middle;resizable=0;points=[];autosize=1;strokeColor=none;fillColor=none;" vertex="1" parent="1">
          <mxGeometry x="280" y="418" width="100" height="30" as="geometry" />
        </mxCell>
        <mxCell id="kj--_n-7NAqOi2iFSIvL-32" value="" style="edgeStyle=none;orthogonalLoop=1;jettySize=auto;html=1;rounded=0;dashed=1;" edge="1" parent="1">
          <mxGeometry width="100" relative="1" as="geometry">
            <mxPoint x="625.5" y="500" as="sourcePoint" />
            <mxPoint x="260" y="500" as="targetPoint" />
            <Array as="points" />
          </mxGeometry>
        </mxCell>
        <mxCell id="kj--_n-7NAqOi2iFSIvL-33" value="search_order()" style="text;html=1;align=center;verticalAlign=middle;resizable=0;points=[];autosize=1;strokeColor=none;fillColor=none;" vertex="1" parent="1">
          <mxGeometry x="360" y="468" width="100" height="30" as="geometry" />
        </mxCell>
        <mxCell id="kj--_n-7NAqOi2iFSIvL-34" value="" style="edgeStyle=none;orthogonalLoop=1;jettySize=auto;html=1;rounded=0;" edge="1" parent="1">
          <mxGeometry width="100" relative="1" as="geometry">
            <mxPoint x="270" y="558.46" as="sourcePoint" />
            <mxPoint x="810" y="558.46" as="targetPoint" />
            <Array as="points" />
          </mxGeometry>
        </mxCell>
        <mxCell id="kj--_n-7NAqOi2iFSIvL-35" value="search_stock()" style="text;html=1;align=center;verticalAlign=middle;resizable=0;points=[];autosize=1;strokeColor=none;fillColor=none;" vertex="1" parent="1">
          <mxGeometry x="480" y="530" width="100" height="30" as="geometry" />
        </mxCell>
        <mxCell id="kj--_n-7NAqOi2iFSIvL-36" value="" style="edgeStyle=none;orthogonalLoop=1;jettySize=auto;html=1;rounded=0;" edge="1" parent="1">
          <mxGeometry width="100" relative="1" as="geometry">
            <mxPoint x="809.5" y="820" as="sourcePoint" />
            <mxPoint x="1009.5" y="820" as="targetPoint" />
            <Array as="points" />
          </mxGeometry>
        </mxCell>
        <mxCell id="kj--_n-7NAqOi2iFSIvL-37" value="display_ready_order()" style="text;html=1;align=center;verticalAlign=middle;resizable=0;points=[];autosize=1;strokeColor=none;fillColor=none;" vertex="1" parent="1">
          <mxGeometry x="840" y="788" width="140" height="30" as="geometry" />
        </mxCell>
        <mxCell id="kj--_n-7NAqOi2iFSIvL-38" value="" style="edgeStyle=none;orthogonalLoop=1;jettySize=auto;html=1;rounded=0;" edge="1" parent="1" target="kj--_n-7NAqOi2iFSIvL-11">
          <mxGeometry width="100" relative="1" as="geometry">
            <mxPoint x="-140" y="840" as="sourcePoint" />
            <mxPoint x="540" y="840" as="targetPoint" />
            <Array as="points" />
          </mxGeometry>
        </mxCell>
        <mxCell id="kj--_n-7NAqOi2iFSIvL-39" value="select_accept_decline()" style="text;html=1;align=center;verticalAlign=middle;resizable=0;points=[];autosize=1;strokeColor=none;fillColor=none;" vertex="1" parent="1">
          <mxGeometry x="305" y="818" width="150" height="30" as="geometry" />
        </mxCell>
        <mxCell id="kj--_n-7NAqOi2iFSIvL-40" value="" style="edgeStyle=segmentEdgeStyle;endArrow=classic;html=1;curved=0;rounded=0;endSize=8;startSize=8;sourcePerimeterSpacing=0;targetPerimeterSpacing=0;" edge="1" parent="1">
          <mxGeometry width="100" relative="1" as="geometry">
            <mxPoint x="1010.5" y="978" as="sourcePoint" />
            <mxPoint x="1005" y="1018" as="targetPoint" />
            <Array as="points">
              <mxPoint x="1060" y="978" />
              <mxPoint x="1060" y="1018" />
            </Array>
          </mxGeometry>
        </mxCell>
        <mxCell id="kj--_n-7NAqOi2iFSIvL-41" value="notify_customer_accept()" style="text;html=1;align=center;verticalAlign=middle;resizable=0;points=[];autosize=1;strokeColor=none;fillColor=none;" vertex="1" parent="1">
          <mxGeometry x="1060" y="980" width="160" height="30" as="geometry" />
        </mxCell>
        <mxCell id="kj--_n-7NAqOi2iFSIvL-42" value="" style="edgeStyle=none;orthogonalLoop=1;jettySize=auto;html=1;rounded=0;dashed=1;" edge="1" parent="1">
          <mxGeometry width="100" relative="1" as="geometry">
            <mxPoint x="1005" y="1030" as="sourcePoint" />
            <mxPoint x="255" y="1030" as="targetPoint" />
            <Array as="points" />
          </mxGeometry>
        </mxCell>
        <mxCell id="kj--_n-7NAqOi2iFSIvL-43" value="get_order_products()" style="text;html=1;align=center;verticalAlign=middle;resizable=0;points=[];autosize=1;strokeColor=none;fillColor=none;" vertex="1" parent="1">
          <mxGeometry x="330" y="998" width="140" height="30" as="geometry" />
        </mxCell>
        <mxCell id="kj--_n-7NAqOi2iFSIvL-44" value="" style="edgeStyle=segmentEdgeStyle;endArrow=classic;html=1;curved=0;rounded=0;endSize=8;startSize=8;sourcePerimeterSpacing=0;targetPerimeterSpacing=0;" edge="1" parent="1">
          <mxGeometry width="100" relative="1" as="geometry">
            <mxPoint x="1020.5" y="900" as="sourcePoint" />
            <mxPoint x="1015" y="940" as="targetPoint" />
            <Array as="points">
              <mxPoint x="1070" y="900" />
              <mxPoint x="1070" y="940" />
            </Array>
          </mxGeometry>
        </mxCell>
        <mxCell id="kj--_n-7NAqOi2iFSIvL-45" value="" style="edgeStyle=none;orthogonalLoop=1;jettySize=auto;html=1;rounded=0;" edge="1" parent="1">
          <mxGeometry width="100" relative="1" as="geometry">
            <mxPoint x="260.0015384615386" y="1150" as="sourcePoint" />
            <mxPoint x="810.54" y="1150" as="targetPoint" />
            <Array as="points" />
          </mxGeometry>
        </mxCell>
        <mxCell id="kj--_n-7NAqOi2iFSIvL-46" value="reduce_stock()" style="text;html=1;align=center;verticalAlign=middle;resizable=0;points=[];autosize=1;strokeColor=none;fillColor=none;" vertex="1" parent="1">
          <mxGeometry x="500" y="1120" width="100" height="30" as="geometry" />
        </mxCell>
        <mxCell id="kj--_n-7NAqOi2iFSIvL-47" value="" style="html=1;points=[];perimeter=orthogonalPerimeter;outlineConnect=0;targetShapes=umlLifeline;portConstraint=eastwest;newEdgeStyle={&quot;edgeStyle&quot;:&quot;elbowEdgeStyle&quot;,&quot;elbow&quot;:&quot;vertical&quot;,&quot;curved&quot;:0,&quot;rounded&quot;:0};" vertex="1" parent="1">
          <mxGeometry x="805" y="1160" width="10" height="140" as="geometry" />
        </mxCell>
        <mxCell id="kj--_n-7NAqOi2iFSIvL-48" value="" style="edgeStyle=segmentEdgeStyle;endArrow=classic;html=1;curved=0;rounded=0;endSize=8;startSize=8;sourcePerimeterSpacing=0;targetPerimeterSpacing=0;" edge="1" parent="1">
          <mxGeometry width="100" relative="1" as="geometry">
            <mxPoint x="820.5" y="1209.98" as="sourcePoint" />
            <mxPoint x="815" y="1249.98" as="targetPoint" />
            <Array as="points">
              <mxPoint x="870" y="1209.98" />
              <mxPoint x="870" y="1249.98" />
            </Array>
          </mxGeometry>
        </mxCell>
        <mxCell id="kj--_n-7NAqOi2iFSIvL-49" value="" style="edgeStyle=none;orthogonalLoop=1;jettySize=auto;html=1;rounded=0;dashed=1;" edge="1" parent="1">
          <mxGeometry width="100" relative="1" as="geometry">
            <mxPoint x="810.54" y="1300" as="sourcePoint" />
            <mxPoint x="260.0015384615386" y="1300" as="targetPoint" />
            <Array as="points" />
          </mxGeometry>
        </mxCell>
        <mxCell id="kj--_n-7NAqOi2iFSIvL-50" value="go_to_finished_orders" style="text;html=1;align=center;verticalAlign=middle;resizable=0;points=[];autosize=1;strokeColor=none;fillColor=none;" vertex="1" parent="1">
          <mxGeometry x="460" y="1268" width="140" height="30" as="geometry" />
        </mxCell>
        <mxCell id="kj--_n-7NAqOi2iFSIvL-51" value="" style="rounded=1;whiteSpace=wrap;html=1;fillColor=none;strokeColor=#B85450;" vertex="1" parent="1">
          <mxGeometry x="380" y="1170" width="700" height="98" as="geometry" />
        </mxCell>
        <mxCell id="kj--_n-7NAqOi2iFSIvL-52" value="alternative" style="shape=document;whiteSpace=wrap;html=1;boundedLbl=1;fillColor=#f8cecc;strokeColor=#b85450;" vertex="1" parent="1">
          <mxGeometry x="380" y="1170" width="70" height="30" as="geometry" />
        </mxCell>
        <mxCell id="kj--_n-7NAqOi2iFSIvL-53" value="stock=0" style="text;html=1;align=center;verticalAlign=middle;resizable=0;points=[];autosize=1;strokeColor=none;fillColor=none;" vertex="1" parent="1">
          <mxGeometry x="380" y="1204" width="70" height="30" as="geometry" />
        </mxCell>
        <mxCell id="kj--_n-7NAqOi2iFSIvL-54" value="" style="rounded=1;whiteSpace=wrap;html=1;fillColor=none;strokeColor=#B85450;" vertex="1" parent="1">
          <mxGeometry x="540" y="860" width="690" height="98" as="geometry" />
        </mxCell>
        <mxCell id="kj--_n-7NAqOi2iFSIvL-55" value="alternative" style="shape=document;whiteSpace=wrap;html=1;boundedLbl=1;fillColor=#f8cecc;strokeColor=#b85450;" vertex="1" parent="1">
          <mxGeometry x="540" y="860" width="70" height="30" as="geometry" />
        </mxCell>
        <mxCell id="kj--_n-7NAqOi2iFSIvL-56" value="decline&amp;nbsp;" style="text;html=1;align=center;verticalAlign=middle;resizable=0;points=[];autosize=1;strokeColor=none;fillColor=none;" vertex="1" parent="1">
          <mxGeometry x="545" y="894" width="60" height="30" as="geometry" />
        </mxCell>
        <mxCell id="kj--_n-7NAqOi2iFSIvL-57" value="notify_customer_accept()" style="text;html=1;align=center;verticalAlign=middle;resizable=0;points=[];autosize=1;strokeColor=none;fillColor=none;" vertex="1" parent="1">
          <mxGeometry x="1070" y="910" width="160" height="30" as="geometry" />
        </mxCell>
        <mxCell id="kj--_n-7NAqOi2iFSIvL-58" value="" style="rounded=1;whiteSpace=wrap;html=1;fillColor=none;strokeColor=#B85450;" vertex="1" parent="1">
          <mxGeometry x="390" y="600" width="700" height="98" as="geometry" />
        </mxCell>
        <mxCell id="kj--_n-7NAqOi2iFSIvL-59" value="alternative" style="shape=document;whiteSpace=wrap;html=1;boundedLbl=1;fillColor=#f8cecc;strokeColor=#b85450;" vertex="1" parent="1">
          <mxGeometry x="390" y="600" width="70" height="30" as="geometry" />
        </mxCell>
        <mxCell id="kj--_n-7NAqOi2iFSIvL-60" value="stock=0" style="text;html=1;align=center;verticalAlign=middle;resizable=0;points=[];autosize=1;strokeColor=none;fillColor=none;" vertex="1" parent="1">
          <mxGeometry x="390" y="634" width="70" height="30" as="geometry" />
        </mxCell>
        <mxCell id="kj--_n-7NAqOi2iFSIvL-61" value="" style="edgeStyle=segmentEdgeStyle;endArrow=classic;html=1;curved=0;rounded=0;endSize=8;startSize=8;sourcePerimeterSpacing=0;targetPerimeterSpacing=0;" edge="1" parent="1">
          <mxGeometry width="100" relative="1" as="geometry">
            <mxPoint x="820.5" y="620" as="sourcePoint" />
            <mxPoint x="815" y="660" as="targetPoint" />
            <Array as="points">
              <mxPoint x="870" y="620" />
              <mxPoint x="870" y="660" />
            </Array>
          </mxGeometry>
        </mxCell>
        <mxCell id="kj--_n-7NAqOi2iFSIvL-62" value="notify_customer_accept()" style="text;html=1;align=center;verticalAlign=middle;resizable=0;points=[];autosize=1;strokeColor=none;fillColor=none;" vertex="1" parent="1">
          <mxGeometry x="870" y="630" width="160" height="30" as="geometry" />
        </mxCell>
        <mxCell id="CqDA3nyQWUUODqkhlPYd-1" value="&lt;font style=&quot;font-size: 21px;&quot;&gt;&lt;u&gt;&lt;b&gt;Sequence για&amp;nbsp;&lt;/b&gt;&lt;/u&gt;&lt;/font&gt;&lt;div style=&quot;font-size: 21px;&quot;&gt;&lt;font style=&quot;font-size: 21px;&quot;&gt;&lt;u&gt;&lt;b&gt;use case 5&lt;/b&gt;&lt;/u&gt;&lt;/font&gt;&lt;/div&gt;" style="text;html=1;align=center;verticalAlign=middle;resizable=0;points=[];autosize=1;strokeColor=none;fillColor=none;" vertex="1" parent="1">
          <mxGeometry x="-350" y="50" width="160" height="60" as="geometry" />
        </mxCell>
      </root>
    </mxGraphModel>
  </diagram>
</mxfile>
